<svg width="666" height="760" viewBox="0 0 666 760" fill="none" xmlns="http://www.w3.org/2000/svg">
<g clip-path="url(#clip0_4096_4316)">
<path d="M412.26 67.3201C443.55 40.8701 494.26 4.84011 535.57 0.500112C605.36 -8.64989 578.33 111.33 568.73 146.97C565.15 160.28 560.15 172.64 555.66 185.6C560.85 210.42 563.74 214.51 574 235.09C583.11 253.33 586.88 272.59 586.84 292.84C599.38 295.77 653.76 306.56 645.24 325.6C643.33 329.86 639.24 331.6 635.15 332.99C615.26 325.99 610.41 320.19 585.42 315.87C583.19 327.61 579.42 338.72 576.09 350.17C583.68 353.87 636.24 380.87 614.82 394.04C603.63 400.92 584.52 375.44 565.46 371.44C547.96 406.59 526.46 420.92 498.78 444.33C514.2 491.33 527.34 538.76 546.48 584.47C570.03 569.7 588.38 550.57 588.73 520.73C585.24 514.18 579.4 510.13 576.45 503.02C563.22 471.02 595.96 439.97 628.03 453.59C669.77 471.32 672.32 537.97 656.9 573.36C639.17 614.05 603.9 644.58 562.9 660.66C560.63 700.57 527.57 743.74 485.27 744.61C455.47 745.22 455.71 738.86 429.53 752.61C406.39 764.75 379.88 758.73 359.25 744.31C337.25 744 315.11 744.31 293.05 744.31L287.25 748.24C263.57 765.12 233.52 763.02 211.37 744.31C189.77 744.31 158.79 746.79 138.93 738.66C102.77 723.8 78.01 682.39 84.07 643.39C85.72 632.73 100.07 599.46 104.64 585.16L115.41 550.8C122.52 528.68 124.71 514.64 129.99 493.22C134.29 475.75 141.22 460.72 147.99 444.29C126.43 429.5 90.22 396.05 81.46 371.4C64.74 377.96 57.25 386.19 43.39 394.95C35.52 399.95 24.96 391.06 27.86 382.3C31.07 372.59 60.46 356.64 70.42 351.42C66.23 339.67 63.42 327.83 60.12 315.83C50.77 317.52 41.26 318.6 32.12 321.14C24.76 323.14 17.77 326.95 10.22 328.14C2.63998 325.58 -3.66003 317.6 2.43997 310.02C9.11997 301.72 48.73 294.8 60.15 294.02C57.44 260.21 68.49 247.79 79.74 221.1C83.88 211.26 87.05 200.75 90.6 190.65C72.17 149.75 63.3 103.65 63.4 58.8401C63.47 31.2701 63.92 1.11011 99.2 1.53011C139.12 2.01011 203.66 38.9601 231.06 67.2601C288.77 44.8801 354.17 47.5301 412.26 67.3201ZM537.12 23.3801C510.25 23.8801 455.06 56.9301 434.61 77.7101C453.85 86.7801 449.37 87.0401 469.89 89.5701C483.174 91.3221 495.744 96.6058 506.29 104.87C522.66 117.72 534.79 135.6 543.29 154.45C549.12 138.29 581.69 10.7001 537.12 23.3801ZM95.27 23.3801C68.45 32.2901 95.35 139.47 101.86 157.68C111.64 135.41 122.21 115.45 143.21 101.68C157.12 93.4101 170.38 88.1701 186.76 89.2601C193.31 85.5401 199.56 80.7201 206.85 78.5801L209.68 77.7301C184.57 54.9101 130.01 21.8901 95.27 23.3801ZM309.01 73.3101C276.34 76.1801 243.34 82.9801 213.74 97.6201C220.58 102.11 230.43 107.53 232.39 116.1C233.021 119.056 232.467 122.142 230.845 124.693C229.223 127.245 226.665 129.057 223.72 129.74C216.3 131.22 210.98 123.09 205.97 119.02C182.22 99.6901 152.88 116.45 137.13 137.53C118.61 162.32 114.6 192.8 103.45 220.73C92.64 247.84 81.25 262.01 81.45 292.84C95.16 293.27 124.84 291.33 128.62 307.55C123.81 327.62 100.99 314.03 83.48 315.87C84.53 325.07 87.97 333.87 90.56 342.74C99.099 338.535 108.068 335.266 117.31 332.99C124.49 335.12 126.79 337.53 128.62 344.48C125.22 358.27 110.51 356.8 100.01 362.69C149.72 445.85 245.22 474.69 336.64 474.28C350.64 473.08 364.64 472 378.53 469.28C437.01 457.97 517.79 420 544.87 362.69C534.12 358.59 520.94 358.95 517.27 346.1C522.34 325.85 542.76 338.16 555.66 342.74C558.46 333.9 560.47 324.81 562.93 315.87C549.09 314.5 525.62 323.74 518.93 315.5C502.29 295.09 557.01 292.43 565.46 292.8C564.69 256.55 553.92 250.04 543.46 221.69C532.09 190.8 524.46 151.02 499.84 127.56C451.9 81.8701 430.11 141.56 414.1 126.94C402.01 115.94 421.58 103.33 429.51 97.5801C394.58 81.1501 347.67 71.3201 309.01 73.3101ZM478.81 457.24L477.95 457.45C469.36 459.5 461.58 465.05 453.52 468.62C373.19 504.21 277.85 505.85 196.89 471.15C187.18 466.99 177.27 463 168.37 457.24C149.81 479.45 143.49 537.1 145.99 565.24C150.14 612.04 166.87 657.36 194.86 695.1C209.05 714.21 229.51 739.82 256.02 737.41C287.72 734.54 305.15 694.84 278.4 674.41C271.5 669.15 259.31 667.11 257.83 657.41C256.61 649.41 254.9 607.24 261.46 601.54C286.01 589.43 279.01 637.9 278.95 649.8C310.35 664.88 317.57 690.65 309.03 722.19C320.3 722.19 331.65 722.5 342.91 722.19C334.31 691.29 343.52 664.01 373.19 649.8C373.19 637.11 366.51 599.8 384.61 600.17C399.72 600.5 394.97 630.9 394.92 640.17C394.81 661.37 399.01 662.32 378.59 672.04C329.48 695.4 393.03 796.41 459.82 690.21C502.4 622.49 512.45 554.05 487.31 477.96C485.22 471.66 483.15 462.6 479.12 457.35L478.81 457.24ZM609.38 472.63C599.52 474.81 592.83 483.12 595.84 493.43C597.39 498.72 603.13 502.17 606.31 506.43C615.8 519.28 608.12 546.31 601.7 559.16C592.33 577.89 573.06 596.45 554 605.16C557.26 615.92 560.7 626.26 562.91 637.32L569.76 633.81C618.76 606.26 667.07 545.81 634.59 489.07C628.84 479.01 621.54 471.32 609.4 472.63H609.38ZM521.76 584.47C518.76 625.59 492.15 690.47 463.3 722.2C470.28 722.947 477.32 722.947 484.3 722.2C527.75 720.2 547.99 669.95 538.86 631.07C536.95 623.11 527.38 588.03 521.76 584.47ZM126.81 589.18C120.5 608.18 114.39 621.72 107.67 639.35C93.51 676.47 128.12 719.92 168.39 722.2H188.68C158.46 688.14 138.73 644.65 129.43 600.2C129.01 598 128.19 590.68 126.81 589.18Z" fill="white"/>
<path d="M217.55 271.37C198.92 267.68 201.49 278.99 193.99 290.09C184.5 304.09 162.86 284.32 184.32 260.44C191.15 252.84 199.63 249.44 209.68 248.94C229.63 245.1 256.45 269.26 251.08 286.45C249.37 291.91 242.43 296.21 236.85 293.94C226.32 289.66 232.47 276.24 217.55 271.37Z" fill="white"/>
<path d="M442.4 271.37C425.56 267.92 428 280.92 421.81 290.54C413.23 303.87 389.99 289.08 408.3 264.18C414.79 255.36 423.94 250.62 434.61 248.94C456.39 245.94 481.91 271.75 474.25 288.36C472.96 291.033 470.664 293.086 467.863 294.068C465.062 295.051 461.986 294.882 459.31 293.6C450.22 289.15 455.78 276.99 442.99 271.6L442.4 271.37Z" fill="white"/>
<path d="M331.01 350.17C299.14 356.57 272.01 313.85 316.71 312.29C354.52 305.72 371.86 335.31 331.01 350.17Z" fill="white"/>
<path d="M325.13 389.63C303.86 416.39 255.05 405.1 248.29 374.46C246.89 368.12 250.57 362.23 257.09 361.22C267.77 359.55 269.87 374.09 277.09 378.83C288.09 386.02 306.74 383.13 312.45 370.38C315.94 362.6 315.99 360.96 325.1 359.46C334.5 361.36 339.37 376.46 352.44 381.68C376.18 391.18 376.09 364.8 385.7 361.08C399.18 355.87 401.83 372.65 395.46 384.08C382.78 406.77 355.23 410.19 334.34 396.54C331.13 394.39 328.53 391.54 325.13 389.63Z" fill="white"/>
</g>
<defs>
<clipPath id="clip0_4096_4316">
<rect width="665.58" height="759.7" fill="white"/>
</clipPath>
</defs>
</svg>
