<svg width="130" height="27" viewBox="0 0 130 27" fill="none" xmlns="http://www.w3.org/2000/svg">
<g clip-path="url(#clip0_3557_16718)">
<path fill-rule="evenodd" clip-rule="evenodd" d="M14.1599 1.43194L13.7584 1.78586C13.6975 1.82072 13.6282 1.83788 13.5582 1.83543L12.8041 1.63418C12.7549 1.63418 12.7057 1.58461 12.6535 1.53505L12.4027 1.08001C12.3535 0.98087 12.3535 0.877766 12.4027 0.827206L12.9044 0.119866C12.9536 0.0207287 13.055 -0.0318139 13.1553 0.0207287L13.9577 0.324088C14.058 0.324088 14.1082 0.374647 14.1082 0.475767L14.2587 1.23367C14.2459 1.30814 14.2115 1.37713 14.1599 1.43194ZM18.1225 5.37413L18.2209 4.71685C18.2194 4.62338 18.1845 4.53358 18.1225 4.46405L17.3703 4.11062C17.2719 4.06106 17.1696 4.06106 17.1194 4.16019L16.5173 4.81846C16.4169 4.91958 16.4169 5.0207 16.5173 5.12182L17.019 5.72854C17.0297 5.73894 17.0412 5.74839 17.0535 5.7568L17.0702 5.7677C17.0795 5.77266 17.0889 5.77761 17.0992 5.78208C17.1261 5.79453 17.1554 5.80073 17.1849 5.80021C17.2145 5.7997 17.2435 5.79248 17.2699 5.7791L18.0221 5.57686C18.0229 5.56428 18.0273 5.55221 18.0349 5.54216C18.0426 5.53118 18.0508 5.5206 18.0595 5.51044C18.0788 5.48974 18.0953 5.46657 18.1087 5.44154C18.1183 5.42041 18.123 5.39736 18.1225 5.37413ZM11.7021 6.48595L11.953 5.87972C11.9943 5.79645 11.9673 5.74738 11.9289 5.67649C11.921 5.66212 11.9127 5.64626 11.9043 5.62693L11.4527 5.12133C11.4035 5.02219 11.3022 5.02219 11.2018 5.07176L10.55 5.37512C10.5039 5.3988 10.4654 5.43506 10.4387 5.47976C10.4121 5.52446 10.3985 5.5758 10.3995 5.62792L10.6002 6.43638C10.6002 6.53552 10.6986 6.58806 10.8009 6.58806H11.4512C11.6018 6.63763 11.6519 6.58707 11.7021 6.48595ZM16.2669 15.8366C16.1685 15.787 16.016 15.6849 15.9658 15.5838C15.4138 14.7748 14.7118 13.8652 13.7083 13.5619C13.508 13.5123 12.9561 13.2585 12.3539 12.854C11.953 12.6017 11.4011 12.1972 11.2003 11.9444C10.3478 10.8326 9.14402 10.1753 7.89006 10.2769C7.73953 10.2769 7.48864 10.4257 7.28793 10.5798L7.23873 10.6294C7.18954 10.6789 7.14034 10.7285 7.14034 10.7811C7.13983 10.772 7.13983 10.7629 7.14034 10.7538C7.14134 10.7419 7.14349 10.7301 7.14674 10.7186L7.23775 10.6294C7.21491 10.632 7.19359 10.6422 7.17712 10.6583C7.16065 10.6745 7.14997 10.6957 7.14674 10.7186C4.30774 13.5088 2.15402 16.4859 1.0196 19.1205C-1.84105 25.035 1.61977 28.7749 7.63868 26.0962C10.3473 24.9844 13.5076 22.8108 16.3662 19.9805C16.6171 19.6271 16.868 19.2731 16.9684 18.8687C17.2699 17.858 17.2699 16.3417 16.2669 15.8366ZM15.0626 18.8687C12.3043 21.5454 9.39491 23.5187 6.98686 24.5294C0.917765 27.0574 0.717053 22.8614 3.12462 18.6159C3.22301 18.4141 3.47587 18.4141 3.6264 18.5167C4.47894 19.3257 5.23161 20.2353 5.83325 21.5999C5.86462 21.6768 5.92255 21.7396 5.99635 21.7768C6.07015 21.814 6.15481 21.823 6.23468 21.8021L7.18757 21.3976C7.3381 21.3481 7.43846 21.1453 7.38828 20.9431C6.58592 19.1234 5.58236 17.9611 4.47894 17.0004C4.3284 16.9013 4.3284 16.6976 4.42974 16.5459C4.88135 15.8886 5.33295 15.2824 5.88442 14.6251C5.9828 14.526 6.18548 14.4734 6.28584 14.526C8.04158 15.5372 9.34572 17.2027 10.1983 18.8726C10.2986 19.0243 10.4491 19.0749 10.6499 19.0243L11.5526 18.5693C11.7031 18.4701 11.8035 18.2664 11.7031 18.1147C10.7502 16.2445 9.29554 14.4754 7.48962 13.2625C7.45081 13.2345 7.41838 13.1985 7.39451 13.1569C7.37064 13.1153 7.35589 13.069 7.35123 13.0212C7.34657 12.9733 7.35211 12.925 7.3675 12.8795C7.38289 12.834 7.40775 12.7924 7.44043 12.7574C7.56587 12.631 7.67853 12.5046 7.79167 12.3782C7.90482 12.2518 8.01748 12.1254 8.14292 11.999C8.24131 11.8998 8.34314 11.8998 8.49368 11.8998C9.16124 12.1149 9.61531 12.5878 10.0753 13.0667C10.4801 13.488 10.8899 13.9143 11.4527 14.1745C11.9353 14.5388 12.3249 14.693 12.6944 14.8392C13.0928 14.9969 13.4682 15.1456 13.9105 15.5391C14.0669 15.7136 14.2228 15.9248 14.3812 16.1389C14.6803 16.5434 14.9868 16.9578 15.3159 17.1561C15.4163 17.2066 15.4665 17.3077 15.4665 17.4594C15.4138 18.1613 15.3622 18.4642 15.0626 18.8687ZM22.9381 6.13203C28.1035 7.85057 32.3179 9.56911 35.0266 13.4607C38.7885 21.5979 24.5428 20.4861 19.4768 18.7675C19.0257 18.6684 18.4737 18.2624 18.3232 17.858C17.7712 16.7461 17.9217 15.2308 18.3724 14.3703C18.4849 14.0618 18.626 13.7648 18.794 13.483C18.9239 13.2668 19.0345 13.0394 19.1245 12.8035C19.2569 12.3217 19.2692 11.7908 19.282 11.2534C19.3085 10.157 19.3351 9.03526 20.379 8.25505C20.508 8.13136 20.6254 7.99596 20.7298 7.85057C20.7947 7.73904 20.8601 7.62008 20.9265 7.49814C21.3742 6.68026 21.8902 5.73647 22.9381 6.13203ZM20.0287 17.2007C24.8439 18.4141 28.957 18.9698 32.77 17.4029C35.9303 15.6338 32.5698 12.7028 30.4628 11.2366C30.4159 11.2031 30.3607 11.1831 30.3033 11.1787C30.246 11.1743 30.1885 11.1856 30.137 11.2116C30.0855 11.2376 30.042 11.2771 30.0111 11.326C29.9802 11.375 29.9631 11.4314 29.9615 11.4894C29.9124 12.5512 29.9615 14.1165 30.1618 14.8759C30.1738 14.9056 30.1794 14.9376 30.1782 14.9697C30.177 15.0018 30.169 15.0332 30.1547 15.062C30.1405 15.0907 30.1203 15.116 30.0955 15.1362C30.0708 15.1565 30.0421 15.1711 30.0112 15.1793L28.958 15.5833C28.8074 15.6824 28.6569 15.5833 28.6067 15.4316C28.1556 13.9663 28.2058 11.8433 28.3563 10.2269C28.4055 10.1277 28.3071 9.97408 28.2058 9.92402C27.4714 9.54729 26.7179 9.20976 25.9483 8.91282C25.8685 8.89199 25.7839 8.901 25.7102 8.93819C25.6365 8.97537 25.5786 9.03821 25.5473 9.11506C24.8449 10.9347 24.8449 13.3606 25.1961 14.8263C25.2453 14.978 25.1469 15.1297 24.9954 15.1803L23.892 15.4836C23.7414 15.5332 23.5909 15.4341 23.5407 15.2814C23.0896 13.5123 23.0896 10.6819 23.8418 8.5594C23.8625 8.47892 23.8536 8.39362 23.8167 8.31926C23.7798 8.2449 23.7174 8.18652 23.6411 8.15492C23.3902 8.05578 23.1393 8.00324 22.8387 7.90212C22.7403 7.85255 22.5376 7.90212 22.4875 8.0538C22.4329 8.15294 22.3817 8.25505 22.331 8.35468C22.1023 8.80427 21.8858 9.22957 21.4342 9.51954C21.083 9.8229 20.9324 10.1258 20.9324 10.2269C20.8636 10.3662 20.8891 10.8148 20.9123 11.2138C20.9226 11.3952 20.9324 11.5662 20.9324 11.6926C20.834 12.8044 20.7317 13.4112 20.2806 14.1711C19.8295 14.9309 19.3774 15.7885 19.6283 16.7982C19.6521 16.8958 19.702 16.9849 19.7726 17.0559C19.8432 17.1269 19.9318 17.177 20.0287 17.2007Z" fill="#F8F8F8"/>
<path d="M46.6714 17.3008C46.9388 16.8928 47.1808 16.4685 47.396 16.0303C47.6672 15.5077 47.8897 14.961 48.0606 14.397C48.2749 13.7253 48.4366 13.0376 48.5442 12.3404C48.6708 11.5131 48.7315 10.6768 48.7258 9.8397V9.19531H55.3921V17.3008H57.0647V21.9389H55.3124V19.2567H47.4378V21.9389H45.6855V17.3008H46.6714ZM53.5586 17.3008V11.1508H50.417C50.3811 11.842 50.2934 12.5295 50.1548 13.2074C50.0471 13.8016 49.8992 14.3877 49.7121 14.9616C49.5693 15.437 49.3943 15.9019 49.1882 16.353C49.0467 16.6787 48.8853 16.9952 48.7051 17.3008H53.5586Z" fill="#F8F8F8"/>
<path d="M64.9337 15.6885C64.773 15.406 64.4507 15.1976 63.967 15.0634C63.4637 14.9124 62.941 14.8376 62.4159 14.8414C61.6508 14.8414 61.0534 14.9625 60.6237 15.2047C60.2076 15.4327 59.9995 15.762 59.9995 16.1926C59.9995 16.5958 60.2008 16.9251 60.6036 17.1805C61.0198 17.4224 61.6239 17.5434 62.4159 17.5434C62.6803 17.5439 62.9441 17.517 63.203 17.463C63.4579 17.4132 63.7075 17.3388 63.9483 17.241C64.1638 17.1541 64.3669 17.039 64.5524 16.8985C64.7116 16.7817 64.8425 16.63 64.9351 16.4548L64.9337 15.6885ZM58.7101 10.7079C59.0863 10.1834 59.6033 9.75994 60.2612 9.43741C60.9191 9.11488 61.6508 8.95346 62.4562 8.95312C63.7992 8.95312 64.8533 9.30275 65.6184 10.002C66.3839 10.6877 66.7666 11.6556 66.7666 12.9057V19.2574H64.9956V18.3702C64.861 18.5579 64.6895 18.7158 64.4919 18.8341C64.2614 18.9763 64.0189 19.0978 63.7673 19.197C63.5051 19.2929 63.2356 19.3672 62.9615 19.419C62.6825 19.4723 62.3992 19.4992 62.1153 19.4993C60.9205 19.4993 59.9606 19.2171 59.2355 18.6527C58.5238 18.0747 58.168 17.2681 58.168 16.2328C58.168 15.7083 58.2687 15.2445 58.47 14.8414C58.683 14.4406 58.9784 14.0901 59.3363 13.8133C59.7145 13.5231 60.1456 13.3106 60.6051 13.1878C61.1149 13.0362 61.6442 12.9616 62.1758 12.9662C62.4187 12.9675 62.6611 12.9877 62.9009 13.0267C63.1596 13.0516 63.4157 13.0988 63.6664 13.1679C63.9097 13.2307 64.1459 13.3186 64.3714 13.4302C64.578 13.5186 64.7686 13.6413 64.9351 13.793V13.3087C64.9351 12.8923 64.8613 12.5361 64.7137 12.24C64.5794 11.9495 64.3792 11.6948 64.1293 11.4965C63.8754 11.2875 63.5803 11.1354 63.2635 11.0504C62.9294 10.955 62.5836 10.9076 62.2363 10.9096C61.6309 10.9009 61.0315 11.0318 60.484 11.2923C59.9593 11.548 59.5431 11.8841 59.2355 12.3005L58.7101 10.7079Z" fill="#F8F8F8"/>
<path d="M78.967 12.0993C79.2487 12.7447 79.3898 13.4571 79.3901 14.2367C79.3904 15.0162 79.2494 15.7287 78.967 16.3741C78.6989 16.9986 78.316 17.5664 77.8385 18.0475C76.865 18.9777 75.5751 19.4972 74.2335 19.4994C73.4681 19.4994 72.8102 19.3716 72.2599 19.1162C71.7096 18.8608 71.3537 18.545 71.1924 18.169V23.5526H69.3594V9.19556H71.1304V10.2643C71.2914 9.88754 71.6472 9.5784 72.1979 9.33684C72.7617 9.08106 73.4263 8.95317 74.1917 8.95317C74.8747 8.95026 75.5517 9.08054 76.1856 9.33684C76.8036 9.58395 77.3655 9.95495 77.837 10.4273C78.3206 10.9031 78.7049 11.4716 78.967 12.0993ZM77.5571 14.196C77.5571 13.1878 77.2483 12.3881 76.6308 11.7969C76.0132 11.2057 75.1941 10.91 74.1735 10.9096C73.5111 10.9004 72.858 11.0672 72.28 11.3934C71.7297 11.7027 71.3673 12.0993 71.1928 12.5831V15.87C71.367 16.3538 71.7294 16.7571 72.28 17.0799C72.8441 17.3892 73.4753 17.5437 74.1735 17.5434C75.1938 17.5434 76.0129 17.241 76.6308 16.6363C77.2487 16.0316 77.5574 15.2181 77.5571 14.196Z" fill="#F8F8F8"/>
<path d="M83.2348 9.19531V16.234L88.5921 9.19531H90.4251V19.2577H88.5921V12.219L83.2348 19.2577H81.4023V9.19531H83.2348Z" fill="#F8F8F8"/>
<path d="M102.589 17.5434C102.909 17.5438 103.227 17.5031 103.536 17.4224C103.832 17.3462 104.122 17.245 104.402 17.12C104.666 17.0091 104.916 16.867 105.147 16.6967C105.342 16.5524 105.523 16.3903 105.688 16.2124L106.172 17.6445C106.047 17.8962 105.876 18.1219 105.668 18.3097C105.426 18.5453 105.156 18.7487 104.863 18.9149C104.526 19.1006 104.167 19.2429 103.795 19.3382C103.368 19.4488 102.928 19.5029 102.486 19.4993C101.772 19.506 101.062 19.3831 100.391 19.1365C99.7807 18.8942 99.2205 18.5386 98.74 18.0881C98.2726 17.6147 97.9029 17.0527 97.6523 16.4345C97.3968 15.7759 97.2692 15.0433 97.2696 14.2366C97.267 13.5559 97.3836 12.88 97.6139 12.24C97.8301 11.616 98.1653 11.0406 98.6008 10.5463C99.034 10.0598 99.562 9.66854 100.152 9.39676C100.756 9.10134 101.441 8.95346 102.206 8.95312C102.931 8.95312 103.583 9.0944 104.16 9.37694C104.726 9.64997 105.227 10.0419 105.63 10.5264C106.056 11.0133 106.378 11.5828 106.577 12.1999C106.794 12.8494 106.903 13.5308 106.899 14.2163C106.898 14.4461 106.877 14.6754 106.838 14.9018H99.1454C99.2392 15.7891 99.595 16.4547 100.213 16.8985C100.83 17.3284 101.623 17.5434 102.589 17.5434ZM104.946 13.047C104.92 12.7552 104.831 12.4728 104.684 12.2202C104.535 11.9496 104.329 11.7155 104.08 11.5347C103.829 11.328 103.542 11.1706 103.234 11.0707C102.902 10.9618 102.555 10.9074 102.207 10.9096C101.845 10.9094 101.485 10.9637 101.139 11.0707C100.817 11.1717 100.511 11.3212 100.233 11.5143C99.9785 11.7018 99.7601 11.9341 99.5881 12.1999C99.415 12.4522 99.3044 12.7427 99.2659 13.047H104.946Z" fill="#F8F8F8"/>
<path d="M108.856 17.3008C109.124 16.8928 109.366 16.4685 109.581 16.0303C109.852 15.5076 110.075 14.9609 110.246 14.397C110.46 13.7253 110.621 13.0376 110.729 12.3404C110.855 11.5131 110.916 10.6768 110.91 9.8397V9.19531H117.577V17.3008H119.249V21.9389H117.497V19.2567H109.621V21.9389H107.869V17.3008H108.856ZM115.743 17.3008V11.1508H112.601C112.565 11.842 112.478 12.5295 112.339 13.2074C112.232 13.8016 112.084 14.3877 111.897 14.9616C111.754 15.437 111.579 15.9019 111.373 16.353C111.232 16.6787 111.07 16.9952 110.89 17.3008H115.743Z" fill="#F8F8F8"/>
<path d="M119.77 9.19531H121.824L124.905 16.5954L127.967 9.19531H130.001L124.019 23.5523H121.985L123.919 18.8741L119.77 9.19531Z" fill="#F8F8F8"/>
</g>
<defs>
<clipPath id="clip0_3557_16718">
<rect width="130" height="26.9811" fill="white"/>
</clipPath>
</defs>
</svg>
