<svg width="818" height="433" viewBox="0 0 818 433" fill="none" xmlns="http://www.w3.org/2000/svg">
<g clip-path="url(#clip0_4096_4311)">
<path d="M295.85 25.34C312.37 9.34001 331.43 0.610012 354.58 0.340012C375.23 -1.27999 392.97 6.59001 408.74 19.15C442.54 -9.27999 490.36 -5.09999 521.42 25.34C564.25 0.130013 617.89 16.34 638.56 61.52C661.03 62.39 733.69 79.52 745.2 103.39C748.2 109.57 751.3 123.1 753.35 130.05L810.94 317.89C812.79 323.73 814.94 329.59 816.37 335.55C825.75 374.78 758.79 391.03 732.49 397.73C660.24 416.14 585.55 424.73 511.23 429.55C501.55 430.17 491.23 429.95 481.79 432.13L480.88 432.34C470.77 430.85 457.37 432.34 446.73 432.34C325.82 432.34 186.67 430.83 71.8198 395.18C42.9998 386.18 -9.26019 369.18 1.40981 329.18C5.40981 314.18 10.6698 299.34 15.4098 284.52L60.5398 140.13C63.6998 129.71 66.1098 118.88 69.6598 108.61C80.5398 77.27 151.88 64.39 180.54 61.51C195.48 16.95 257.59 0.870012 295.85 25.34ZM460.85 23.89C429.11 22.96 420.24 46.27 410.01 46.99C400.14 47.69 360.39 -2.57998 316.21 38.72C294.88 58.66 301.77 53.52 277.96 42.26C253.23 30.57 220.35 39.05 205.96 62.67C191.34 86.62 205.61 80.49 173.38 86.14C151.53 89.98 105.04 98.9 91.0098 116.04C121.94 149.74 286.43 164.22 335.67 163.78C441.77 168.22 579.38 166.52 679.36 137.89C692.62 134.09 717.62 127.97 725.78 116.04C711.27 97.2 664.45 89.68 641.78 85.32C617.52 80.66 624.38 86.77 614.4 65.89C601.87 39.66 567.88 31.31 542.26 41.59C534.71 44.59 524.78 53.65 516.56 52.28C508.34 50.91 486.41 16.22 460.88 23.88L460.85 23.89ZM731.82 141.53C664.17 178.23 539.35 186.39 464.41 188.4C446.01 188.9 427.5 188.46 409.09 188.45C332.09 188.45 149.31 183.73 85.0098 141.53C80.9198 156.27 75.9598 170.72 71.4698 185.34L30.7298 314.64C28.7298 320.98 20.7298 337.3 24.4398 343.72C32.6998 357.99 61.1598 367.06 76.4398 371.79C172.27 401.85 308.93 408.53 408.92 408.52C496.19 408.52 582.75 402.99 668.83 387.77C689.69 384.08 785.7 366.88 793.52 345.01C794.34 342.72 793.22 339.01 792.52 336.86L738.28 159.73C737.01 155.6 735.38 143.97 731.82 141.53Z" fill="white"/>
<path d="M628.27 257.24C584.27 260.88 578.36 187.72 619.95 179.98C665.1 176.26 670.02 248.94 628.27 257.24ZM623.19 201.8C611.34 209.07 610.94 230.02 624.97 234.87C637.28 230.73 636.54 203.9 623.19 201.8Z" fill="white"/>
<path d="M582.2 286.95C530.99 312.64 497.26 228.55 551.13 220.95C580.86 218.22 605.13 253.12 588.13 280.04C605.63 266.04 624.02 257.73 645.47 270.18C649.05 272.25 652.23 274.97 655.81 277.04L656.2 277.27C642.56 245.93 670.84 213.83 700.63 222.35C742.21 234.25 719.26 304.35 666.13 288.11C668.75 290.7 671.24 293.38 673.73 296.11C689.45 313.63 694.6 338.82 675.47 355.98C657.68 371.98 642.66 360.55 623.74 360.98C613.68 361.19 603.84 364.68 593.74 364.08C551.78 361.59 551.6 313.34 582.2 286.95ZM549.25 243.95C539.36 252.47 555.86 273.25 567.16 268.76C579.72 257.65 562.89 242.04 549.25 243.96V243.95ZM690.52 243.95C676.18 247.14 665.95 267.47 684.7 268.76C697.03 263.75 706.43 243.51 690.54 243.96L690.52 243.95ZM619.95 286.95C604.06 292.74 564.87 329.74 591.39 340.11C600.6 343.71 617.28 336.68 628.27 338.36C639.27 338.73 665.67 347.73 664.85 327.99C664.19 312.34 636.99 284.71 619.95 286.95Z" fill="white"/>
<path d="M429.96 359.79C408.12 359.79 352.1 359.61 331.06 353.93C304 346.64 292.28 306.61 310.85 285.63C323.37 271.5 323.69 261.78 332.46 251.16C349.05 231.1 376.54 228.63 400.73 226.34C427.47 224.92 467.34 226.94 488.08 245.28C497.22 253.37 499.68 263.85 506.08 273.61C514.54 286.51 526.83 289.18 527.94 310.61C530.54 361.23 464.42 358.04 429.96 359.79ZM408.74 249.34C392.84 249.69 363.11 251.43 351.92 263.59C345.81 270.23 344.19 279.51 339.61 287.06C334.47 295.51 324.1 302.06 325.01 313.06C326.73 333.91 345.79 332.36 361.38 333.63C382.31 335.34 402.86 336.3 423.86 336.26C442.59 335.79 508.77 340.17 505 310.57C503.76 300.82 493.11 295.12 487.87 287.57C482.21 279.46 479.79 267.17 471.87 260.93C459.33 250.96 424.48 247.12 408.74 249.34Z" fill="white"/>
</g>
<defs>
<clipPath id="clip0_4096_4311">
<rect width="817.26" height="432.36" fill="white"/>
</clipPath>
</defs>
</svg>
