<svg width="778" height="436" viewBox="0 0 778 436" fill="none" xmlns="http://www.w3.org/2000/svg">
<g clip-path="url(#clip0_4096_4322)">
<path d="M416.81 435.74C324.87 435.82 93.7099 423.96 22.3899 354.11C-7.90005 324.44 -2.23005 294 9.08994 259.33L51.83 127.3C58.19 107.57 61.2999 86.0699 76.4799 70.8299C129.48 17.6199 289.48 -0.17008 363.62 0.03992C459.72 -0.01008 632.46 7.50992 700.68 69.1399C714.62 81.7299 717.33 96.3799 722.57 113.66L763.72 242.5C769.02 259.04 776.94 276.01 777.72 293.5C779.72 338.03 756.05 360.08 719.34 377.99C625.57 423.76 519.12 430.85 416.81 435.74ZM363.62 21.8699C289.25 25.1399 214.36 31.2999 144.05 57.6799C117.31 67.6799 57.12 93.2699 97.74 126.44C163.43 180.1 326.63 184.73 416.81 184.69C479.51 182.43 640.81 169.69 686.35 120.83C718.92 85.9299 646.55 61.2399 623.11 53.5399C539.09 25.9099 451.25 21.7999 363.62 21.8699ZM704.7 134.3C649.7 188.99 515.79 202.45 443.7 205.77C339.48 210.58 147.03 205.45 73.4399 134.3C57.0399 182.56 40.8999 231.25 26.2899 280.1C15.7799 315.23 27.5299 336.44 60.8999 354.33C93.9999 371.65 130.52 382.17 166.81 390.41C316.54 424.41 516.17 422.86 661.12 377.48C706.47 363.28 771.74 339.81 752.66 279.41C749.14 268.07 706.91 136.86 704.7 134.3Z" fill="white"/>
<path d="M408.42 91.5499C327.42 91.2399 242.24 94.0299 164.84 120.7C156.84 123.47 146.05 130.15 138.04 131.09C128.79 132.17 122.99 120.55 129.21 113.48C140.47 100.68 195.78 87.7699 211.86 84.4799C264.11 73.8499 313.6 71.8099 366.49 68.8299C441.27 68.7599 546.61 73.0599 618.73 97.4099C628.13 100.58 658.47 107.5 648.38 123.19C646.2 126.58 642.56 127.6 638.88 128.5C632.24 126.94 625.75 123.64 619.29 121.35C559.11 100.09 471.75 91.3799 408.42 91.5499Z" fill="white"/>
<path d="M283.11 275.51C269.18 299.08 262.54 327.71 271.91 354.26C273.84 359.73 277.48 364.44 279.31 369.76C283.31 381.34 261.11 400.41 248.93 355.18C240.87 325.24 246.59 293.85 262.02 267.25C279.95 236.36 279.02 234.42 301.09 255.58C328.25 281.63 347.25 288.3 384.89 288.3C424.28 288.36 439.37 288.37 471.37 260.52C478.19 254.58 485.3 242.72 494.53 240.85C504.12 242.33 508.85 254.54 513.15 262C526.87 285.75 537.15 311.7 534.15 339.68C532.93 350.83 527 374.86 517.75 381.87C512.81 385.63 505.21 383.64 501.94 378.55C494.61 367.11 533.94 335.13 492.22 271.55C474.09 290.22 447.22 307.09 421.02 309.64C406.44 311.06 373.39 311.45 358.43 309.8C329.1 306.55 307.71 289.36 285.92 271.55L283.11 275.51Z" fill="white"/>
<path d="M351.52 361.08C334.45 368.08 321.63 345.35 336.93 338.74C340.49 338.58 341.93 340.46 344.14 343.07C358.17 330.09 361.05 350.16 351.52 361.08Z" fill="white"/>
<path d="M439.52 361.08C424.85 367.54 413.25 346.78 427.25 338.74C435.97 339.02 449.25 336.84 446.37 350.9C446.002 352.981 445.202 354.962 444.022 356.715C442.842 358.468 441.309 359.955 439.52 361.08Z" fill="white"/>
<path d="M380.76 359.38C372.93 353.96 368.85 343.96 378.85 338.74C382.79 338.56 386.01 341.17 389.31 343.07C406.52 332.52 410.9 347.35 398.05 359.38V374.3C404.05 371.48 409.54 363.39 417.17 366.23C430.25 371.09 413.98 388.81 402.94 392.94C366.05 403.64 348.46 369.94 363.04 365.94C370.3 363.94 375.11 371.18 380.76 374.27V359.38Z" fill="white"/>
</g>
<defs>
<clipPath id="clip0_4096_4322">
<rect width="777.86" height="435.74" fill="white"/>
</clipPath>
</defs>
</svg>
